<mxfile host="drawio-plugin" modified="2023-12-18T16:29:51.951Z" agent="5.0 (Windows NT 10.0; Win64; x64) AppleWebKit/537.36 (KHTML, like Gecko) Chrome/111.0.0.0 Safari/537.36" etag="QdMqTjTQ8eMcAacMNty3" version="20.5.3" type="embed"><diagram id="23iRSUPoRavnBvh4doch" name="Page-1"><mxGraphModel dx="500" dy="1703" grid="1" gridSize="10" guides="1" tooltips="1" connect="1" arrows="1" fold="1" page="1" pageScale="1" pageWidth="827" pageHeight="1169" math="0" shadow="0"><root><mxCell id="0"/><mxCell id="1" parent="0"/><mxCell id="2" value="&lt;font style=&quot;font-size: 14px;&quot;&gt;GUI&amp;nbsp;&lt;/font&gt;&lt;br&gt;Button array = {play, pause, save, open, generate, login, logout}&lt;br&gt;Layout Vbox (tracks)&lt;br&gt;Stage BorderPane" style="rounded=0;whiteSpace=wrap;html=1;" parent="1" vertex="1"><mxGeometry x="170" y="20" width="180" height="110" as="geometry"/></mxCell><mxCell id="4" value="&lt;font style=&quot;font-size: 14px;&quot;&gt;MIDI Music Engine&lt;br&gt;&lt;/font&gt;MIDI API&lt;br&gt;Sound player&lt;br&gt;Song generator (as tracks)" style="rounded=0;whiteSpace=wrap;html=1;" parent="1" vertex="1"><mxGeometry x="415" y="40" width="170" height="90" as="geometry"/></mxCell><mxCell id="5" value="&lt;font style=&quot;font-size: 14px;&quot;&gt;Song&lt;/font&gt;&lt;br&gt;Properties&lt;br&gt;Tracks&lt;br&gt;BPM&lt;br&gt;Key&lt;br&gt;Length&lt;br&gt;" style="rounded=0;whiteSpace=wrap;html=1;" parent="1" vertex="1"><mxGeometry x="200" y="150" width="120" height="130" as="geometry"/></mxCell><mxCell id="6" value="User" style="rounded=0;whiteSpace=wrap;html=1;" parent="1" vertex="1"><mxGeometry x="200" y="-60" width="120" height="60" as="geometry"/></mxCell><mxCell id="7" value="Firebase API" style="rounded=0;whiteSpace=wrap;html=1;" parent="1" vertex="1"><mxGeometry x="40" y="370" width="120" height="60" as="geometry"/></mxCell><mxCell id="8" value="Track&lt;br&gt;Properties" style="rounded=0;whiteSpace=wrap;html=1;" parent="1" vertex="1"><mxGeometry x="440" y="185" width="120" height="60" as="geometry"/></mxCell><mxCell id="9" value="" style="endArrow=classic;html=1;rounded=0;entryX=0;entryY=0.5;entryDx=0;entryDy=0;exitX=1;exitY=0.5;exitDx=0;exitDy=0;" parent="1" source="5" target="8" edge="1"><mxGeometry width="50" height="50" relative="1" as="geometry"><mxPoint x="230" y="300" as="sourcePoint"/><mxPoint x="280" y="250" as="targetPoint"/></mxGeometry></mxCell><mxCell id="13" value="1 contains 2&amp;nbsp;" style="text;html=1;strokeColor=none;fillColor=none;align=center;verticalAlign=middle;whiteSpace=wrap;rounded=0;" parent="1" vertex="1"><mxGeometry x="330" y="170" width="110" height="50" as="geometry"/></mxCell><mxCell id="15" value="" style="endArrow=classic;html=1;rounded=0;entryX=0.5;entryY=1;entryDx=0;entryDy=0;" parent="1" target="8" edge="1"><mxGeometry width="50" height="50" relative="1" as="geometry"><mxPoint x="499" y="340" as="sourcePoint"/><mxPoint x="499.29" y="250" as="targetPoint"/></mxGeometry></mxCell><mxCell id="16" value="" style="endArrow=none;html=1;rounded=0;" parent="1" edge="1"><mxGeometry width="50" height="50" relative="1" as="geometry"><mxPoint x="400" y="340" as="sourcePoint"/><mxPoint x="580" y="340" as="targetPoint"/></mxGeometry></mxCell><mxCell id="17" value="Melody" style="rounded=0;whiteSpace=wrap;html=1;" parent="1" vertex="1"><mxGeometry x="330" y="400" width="120" height="50" as="geometry"/></mxCell><mxCell id="18" value="Chord" style="rounded=0;whiteSpace=wrap;html=1;" parent="1" vertex="1"><mxGeometry x="510" y="400" width="120" height="50" as="geometry"/></mxCell><mxCell id="19" value="" style="endArrow=none;html=1;rounded=0;" parent="1" edge="1"><mxGeometry width="50" height="50" relative="1" as="geometry"><mxPoint x="400" y="400" as="sourcePoint"/><mxPoint x="400" y="340" as="targetPoint"/></mxGeometry></mxCell><mxCell id="21" value="" style="endArrow=none;html=1;rounded=0;" parent="1" edge="1"><mxGeometry width="50" height="50" relative="1" as="geometry"><mxPoint x="580" y="400" as="sourcePoint"/><mxPoint x="580" y="340" as="targetPoint"/></mxGeometry></mxCell></root></mxGraphModel></diagram></mxfile>